<?xml version="1.0" standalone="no"?>
<!DOCTYPE svg PUBLIC "-//W3C//DTD SVG 20010904//EN"
 "http://www.w3.org/TR/2001/REC-SVG-20010904/DTD/svg10.dtd">
<svg version="1.0" xmlns="http://www.w3.org/2000/svg"
 width="300.000000pt" height="240.000000pt" viewBox="0 0 300.000000 240.000000"
 preserveAspectRatio="xMidYMid meet">
<metadata>
Created by potrace 1.10, written by Peter Selinger 2001-2011
</metadata>
<g transform="translate(0.000000,240.000000) scale(0.100000,-0.100000)"
fill="#000000" stroke="none">
<path d="M680 1965 c0 -13 24 -15 157 -15 l158 0 127 -127 128 -128 128 128
127 127 158 0 c133 0 157 2 157 15 0 13 -25 15 -164 15 l-164 0 -121 -119
-121 -118 -117 118 -117 119 -168 0 c-143 0 -168 -2 -168 -15z"/>
<path d="M2020 1965 c0 -13 23 -15 150 -15 127 0 150 2 150 15 0 13 -23 15
-150 15 -127 0 -150 -2 -150 -15z"/>
<path d="M680 1896 c0 -15 6 -17 35 -14 l35 4 0 -428 0 -428 -35 0 c-24 0 -35
-5 -35 -15 0 -13 23 -15 150 -15 127 0 150 2 150 15 0 10 -11 15 -35 15 l-35
0 0 423 c0 233 2 426 5 429 3 2 19 2 37 0 24 -4 63 -36 167 -138 l136 -134
135 135 c104 103 142 134 165 137 l30 3 3 -427 2 -428 -35 0 c-24 0 -35 -5
-35 -15 0 -13 23 -15 150 -15 127 0 150 2 150 15 0 10 -11 15 -35 15 l-35 0 0
147 0 148 145 -145 c87 -87 140 -146 131 -148 -8 -2 -17 -10 -20 -18 -5 -12
19 -14 149 -14 131 0 155 2 155 15 0 8 -8 15 -17 15 -10 0 -113 95 -228 210
l-211 210 216 215 c120 120 224 215 234 215 10 0 16 6 14 16 -2 13 -26 16
-151 17 -137 2 -147 1 -147 -17 0 -12 5 -16 15 -12 8 3 15 2 15 -2 0 -4 -68
-75 -150 -157 l-150 -150 0 156 0 155 35 -4 c29 -3 35 -1 35 14 0 18 -10 19
-157 16 l-158 -3 -127 -127 -128 -127 -127 127 -128 127 -158 3 c-147 3 -157
2 -157 -16z m140 -436 c0 -423 0 -430 -20 -430 -20 0 -20 7 -20 423 0 233 3
427 7 430 3 4 12 7 20 7 11 0 13 -78 13 -430z m60 0 c0 -376 -2 -430 -15 -430
-13 0 -15 54 -15 430 0 376 2 430 15 430 13 0 15 -54 15 -430z m770 0 c0 -376
-2 -430 -15 -430 -13 0 -15 54 -15 430 0 376 2 430 15 430 13 0 15 -54 15
-430z m70 0 c0 -423 0 -430 -20 -430 -20 0 -20 7 -20 423 0 233 3 427 7 430 3
4 12 7 20 7 11 0 13 -78 13 -430z m235 230 c-165 -166 -201 -197 -203 -179 -5
32 341 379 378 379 21 0 -8 -33 -175 -200z m285 197 c0 -1 -110 -113 -245
-247 -205 -206 -245 -241 -245 -220 0 20 49 74 223 248 155 154 230 222 245
222 12 0 22 -1 22 -3z m-213 -658 c149 -148 195 -199 177 -197 -30 4 -397 366
-390 385 3 7 7 13 8 13 2 0 94 -90 205 -201z m-67 -24 c147 -147 171 -175 150
-175 -19 0 -65 39 -189 164 -143 144 -176 186 -143 186 4 0 86 -79 182 -175z"/>
<path d="M990 1802 c0 -9 59 -76 130 -147 l130 -130 130 130 c80 80 130 137
130 150 0 14 -37 -17 -130 -110 l-130 -130 -127 128 c-69 70 -128 127 -130
127 -2 0 -3 -8 -3 -18z"/>
<path d="M680 948 c0 -16 14 -18 150 -18 136 0 150 2 150 18 0 15 -14 17 -150
17 -136 0 -150 -2 -150 -17z"/>
<path d="M1520 948 c0 -16 14 -18 150 -18 136 0 150 2 150 18 0 15 -14 17
-150 17 -136 0 -150 -2 -150 -17z"/>
<path d="M2003 958 c-13 -22 19 -28 158 -28 130 0 150 2 147 15 -2 13 -27 16
-151 18 -82 1 -151 -1 -154 -5z"/>
<path d="M1110 821 c-34 -6 -35 -7 -37 -53 -1 -36 2 -48 13 -48 8 0 14 9 14
20 0 13 7 20 20 20 11 0 20 5 20 10 0 6 -9 10 -20 10 -11 0 -20 5 -20 10 0 6
11 10 25 10 16 0 25 6 25 15 0 8 -1 14 -2 14 -2 -1 -19 -5 -38 -8z"/>
<path d="M1302 814 c-26 -18 -29 -56 -6 -78 19 -19 45 -20 66 -3 28 22 29 47
3 73 -28 28 -33 29 -63 8z m55 -30 c3 -8 -2 -23 -11 -32 -14 -15 -18 -15 -31
-1 -9 9 -13 23 -9 32 8 21 43 22 51 1z"/>
<path d="M1514 821 c-9 -9 -3 -21 11 -21 11 0 15 -11 15 -40 0 -29 4 -40 15
-40 11 0 15 11 15 39 0 27 5 41 16 45 9 4 14 9 11 13 -7 7 -76 10 -83 4z"/>
<path d="M1969 816 c-13 -6 -25 -22 -27 -35 -7 -48 59 -81 89 -45 11 14 10 16
-11 14 -45 -4 -51 -1 -48 23 2 17 10 22 30 22 15 0 28 4 29 10 1 16 -37 24
-62 11z"/>
<path d="M685 770 c0 -33 4 -50 13 -50 8 0 12 17 12 50 0 33 -4 50 -12 50 -9
0 -13 -17 -13 -50z"/>
<path d="M850 770 c0 -55 17 -69 22 -17 l3 32 18 -32 c27 -50 47 -43 47 17 0
35 -4 50 -13 50 -9 0 -12 -10 -9 -30 2 -16 2 -30 -2 -30 -3 0 -12 14 -21 30
-25 48 -45 39 -45 -20z"/>
<path d="M1730 770 l0 -50 40 0 c22 0 40 5 40 10 0 6 -13 10 -30 10 -16 0 -30
5 -30 10 0 6 11 10 25 10 14 0 25 5 25 10 0 6 -11 10 -25 10 -14 0 -25 5 -25
10 0 6 11 10 24 10 14 0 28 5 31 10 4 6 -10 10 -34 10 l-41 0 0 -50z"/>
<path d="M2178 770 c4 -47 22 -73 22 -30 0 14 7 20 24 20 19 0 23 -4 19 -20
-4 -14 0 -20 11 -20 13 0 16 11 16 50 0 38 -4 50 -15 50 -8 0 -15 -9 -15 -20
0 -13 -7 -20 -20 -20 -13 0 -20 7 -20 20 0 11 -6 20 -12 20 -9 0 -12 -15 -10
-50z"/>
<path d="M15 20 c-11 -5 635 -9 1483 -9 1000 -1 1501 2 1497 9 -8 13 -2951 13
-2980 0z"/>
</g>
</svg>
